<svg id="Capa_1" data-name="Capa 1" xmlns="http://www.w3.org/2000/svg" viewBox="0 0 50.62 50.62">
  <defs>
    <style>
      .cls-1 {
        fill: none;
        stroke: #0057ff;
        stroke-miterlimit: 10;
        stroke-width: 4px;
      }

      .cls-2 {
        fill: #0057ff;
      }
    </style>
  </defs>
  <circle class="cls-1" cx="25.31" cy="25.31" r="22.81"/>
  <path class="cls-2" d="M58.31,49.51,52.2,56.63a.17.17,0,0,1-.29-.11V37.11a.17.17,0,0,0-.17-.15H48.26a.17.17,0,0,0-.17.15V56.52a.17.17,0,0,1-.29.11l-6.11-7.11a.88.88,0,0,0-1.14-.15l-1.67,1.15a.78.78,0,0,0-.15,1.16l9,10.45a2.57,2.57,0,0,0,2,.91h.64a2.57,2.57,0,0,0,2-.91l9-10.45a.78.78,0,0,0-.15-1.16l-1.68-1.15A.85.85,0,0,0,58.31,49.51Z" transform="translate(-24.69 -24.69)"/>
</svg>
