<svg id="Capa_1" data-name="Capa 1" xmlns="http://www.w3.org/2000/svg" viewBox="0 0 400.58717 261.20553">
  <defs>
    <style>
      .cls-1 {
        fill: #05f;
        stroke: #05f;
        stroke-width: 0.5px;
      }

      .cls-1, .cls-4 {
        stroke-miterlimit: 10;
      }

      .cls-2, .cls-3 {
        fill: #2730cc;
      }

      .cls-3 {
        opacity: 0.5;
      }

      .cls-4 {
        fill: #ffd400;
        stroke: #ffd400;
      }
    </style>
  </defs>
  <path class="cls-1" d="M340.78524,367.8146c-14.38093-2.88708-33.06034-10.15186-50.22133-21.539-20.15477-13.41868-38.81248-34.58889-47.74032-68.16234a138.06536,138.06536,0,0,1-3.368-15.98468c-.21405-1.81781-.48129-3.58177-.802-5.34607,0-.107-.05351-.16021-.05351-.26723a95.53528,95.53528,0,0,0-47.47243-65.86291l.00032-.00066a95.20356,95.20356,0,1,0-46.08305,178.5052" transform="translate(-49.58142 -108.20138)"/>
  <path class="cls-2" d="M340.2029,367.95379c-14.41457-2.89245-33.02334-10.17212-50.18588-21.54948C269.86551,333.002,251.20849,311.79,242.28957,278.23612a138.94848,138.94848,0,0,1-3.37442-15.95731c-.24129-1.832-.48227-3.61571-.81978-5.35117,0-.14477-.04825-.193-.04825-.28925a95.54439,95.54439,0,0,0-41.46-62.19027A130.68138,130.68138,0,1,1,340.2029,367.95379" transform="translate(-49.58142 -108.20138)"/>
  <path class="cls-3" d="M339.55,367.82l-39.93.27A130.65291,130.65291,0,0,1,196.57,194.45a95.53542,95.53542,0,0,1,41.46,62.19,2.76684,2.76684,0,0,1,.05.29c.34,1.73.57995,3.51.82,5.35a140.96148,140.96148,0,0,0,3.37,15.95C251.19,311.79,269.85,333,290,346.4,306.91,357.61,325.22,364.84,339.55,367.82Z" transform="translate(-49.58142 -108.20138)"/>
  <path class="cls-4" d="M428.5226,225.30226a2.65737,2.65737,0,0,1-1.68721,4.00117L320.3889,253.16716a2.61008,2.61008,0,0,1-2.073-4.67617l51.43937-36.63934a2.57849,2.57849,0,0,0,.62675-3.61571L336.87644,159.689a2.53535,2.53535,0,0,1,0-2.9407l27.43117-40.64051a130.65365,130.65365,0,0,1,71.63943,63.54l-25.55123,12.05235a2.662,2.662,0,0,0-1.10872,3.80874Z" transform="translate(-49.58142 -108.20138)"/>
</svg>
