<svg id="Capa_1" data-name="Capa 1" xmlns="http://www.w3.org/2000/svg" viewBox="0 0 273.33 128.22">
  <defs>
    <style>
      .cls-1 {
        fill: none;
        stroke: #898989;
        stroke-miterlimit: 10;
      }
    </style>
  </defs>
  <g>
    <polygon class="cls-1" points="235.37 52.59 141.68 43.01 141.68 0.55 235.37 10.14 235.37 52.59"/>
    <polygon class="cls-1" points="184.71 64.11 91.02 54.52 91.02 12.07 184.71 21.65 184.71 64.11"/>
    <line class="cls-1" x1="91.02" y1="12.07" x2="141.68" y2="0.55"/>
    <line class="cls-1" x1="184.71" y1="21.65" x2="235.37" y2="10.14"/>
    <line class="cls-1" x1="235.37" y1="52.59" x2="184.71" y2="64.11"/>
    <line class="cls-1" x1="91.02" y1="54.52" x2="141.68" y2="43.01"/>
  </g>
  <g>
    <polygon class="cls-1" points="235.37 116.15 141.68 106.56 141.68 64.11 235.37 73.69 235.37 116.15"/>
    <polygon class="cls-1" points="184.71 127.66 91.02 118.08 91.02 75.62 184.71 85.21 184.71 127.66"/>
    <line class="cls-1" x1="91.02" y1="75.62" x2="141.68" y2="64.11"/>
    <line class="cls-1" x1="184.71" y1="85.21" x2="235.37" y2="73.69"/>
    <line class="cls-1" x1="235.37" y1="116.15" x2="184.71" y2="127.66"/>
    <line class="cls-1" x1="91.02" y1="118.08" x2="141.68" y2="106.56"/>
  </g>
  <path class="cls-1" d="M83.26,317.19S122,355.77,135.39,295s54.71-54.32,54.71-54.32" transform="translate(-82.91 -204.87)"/>
  <path class="cls-1" d="M299.49,261.73s8.28,14.63,36.16,7.25c7.48-2,19.87-2.24,20.09,8.09.08,3.76-2,10-3.81,13.31-8.8,15.9-21.11,24.83-33.65,10.17" transform="translate(-82.91 -204.87)"/>
</svg>
